<?xml version="1.0" encoding="utf-8"?>
<!-- Generator: Adobe Illustrator 24.0.0, SVG Export Plug-In . SVG Version: 6.00 Build 0)  -->
<svg version="1.1" xmlns="http://www.w3.org/2000/svg" xmlns:xlink="http://www.w3.org/1999/xlink" x="0px" y="0px"
	 viewBox="0 0 26 26" style="enable-background:new 0 0 26 26;" xml:space="preserve">
<style type="text/css">
	.st0{fill:#080806;}
</style>
<g id="Layer_1">
	<path class="st0" d="M0.48,25.52L0.48,25.52c-0.64-0.64-0.64-1.69,0-2.33L23.19,0.48c0.64-0.64,1.69-0.64,2.33,0l0,0
		c0.64,0.64,0.64,1.69,0,2.33L2.81,25.52C2.17,26.16,1.12,26.16,0.48,25.52z"/>
	<path class="st0" d="M0.48,0.48L0.48,0.48c0.64-0.64,1.69-0.64,2.33,0l22.71,22.71c0.64,0.64,0.64,1.69,0,2.33l0,0
		c-0.64,0.64-1.69,0.64-2.33,0L0.48,2.81C-0.16,2.17-0.16,1.12,0.48,0.48z"/>
</g>
<g id="Layer_2">
</g>
</svg>
